<?xml version="1.0" encoding="utf-8"?>
<!-- Generator: Adobe Illustrator 22.0.1, SVG Export Plug-In . SVG Version: 6.00 Build 0)  -->
<svg version="1.1" id="Layer_1" xmlns="http://www.w3.org/2000/svg" xmlns:xlink="http://www.w3.org/1999/xlink" x="0px" y="0px"
	 viewBox="0 0 616 219" style="enable-background:new 0 0 616 219;" xml:space="preserve">
<style type="text/css">
	.st0{fill:#FFFFFF;}
</style>
<title>logo_white</title>
<desc>Created with Sketch.</desc>
<g id="Symbols">
	<g id="logo_white">
		<g id="Group" transform="translate(5.000000, 9.000000)">
			<path id="Fill-11" class="st0" d="M78.5,0c-4.2,0-23.1,18.9-49.9,20.3c-4.7,0.3-8.9,0.6-12,0.6c-14.8,0-15-2.2-15-2.2
				s-8.1,81.3,12,116.9C33.6,171.5,78.5,201,78.5,201s44.6-29.5,64.9-65.4c20.1-35.9,12-116.9,12-116.9s-0.3,2.2-15,2.2
				c-3.3,0-7.2,0-12-0.3C101.6,18.9,82.7,0,78.5,0z M78.5,7.8c0.8,0.6,2.2,1.4,3.6,2.2c8.9,5.6,25.1,16.4,45.7,17.5
				c4.7,0.3,8.9,0.3,12.5,0.3c3.1,0,5.9,0,8.6-0.3c1.4,21.2,3.3,77.4-11.7,104.4c-15.6,27.8-47.6,52.3-58.5,60.1
				C67.6,184,35.9,159.5,20.3,132C4.7,105,6.6,49,8,27.6c2.8,0.3,5.6,0.3,8.6,0.3c3.6,0,7.8,0,12.5-0.3C49.8,26.4,66.2,15.9,74.9,10
				C76,9.2,77.4,8.4,78.5,7.8z"/>
			<path id="Fill-12" class="st0" d="M125.5,121.7c0.3-0.8,0.4-1.6,0.4-2.5c0-0.8-0.2-1.6-0.4-2.4c-0.2-0.8-0.5-1.6-0.9-2.3
				c-0.2-0.4-0.4-0.7-0.6-1.1c-0.2-0.4-0.4-0.7-0.6-1l-0.7-1l-0.8-1c-0.5-0.7-1.1-1.3-1.6-1.9c-0.5-0.6-1.1-1.2-1.7-1.8
				c-0.6-0.6-1.2-1.2-1.8-1.8c-1.2-1.2-2.4-2.4-3.7-3.6c-1.2-1.2-2.4-2.4-3.6-3.6c-2.4-2.4-4.8-4.8-7.2-7.3l-0.2-0.2l-0.1-0.3
				c-1-2.8-2.2-5.6-3.4-8.4c-0.6-1.4-1.2-2.7-1.9-4c-0.3-0.6-0.7-1.3-1-1.9c-0.4-0.6-0.7-1.1-1.2-1.7l-0.7-0.8l-0.8-0.8l-1.6-1.5
				c-1.1-1-2.2-2-3.4-3l-6.8-6.1c2.7,1.5,5.2,3.2,7.7,4.9c1.3,0.9,2.5,1.8,3.7,2.7c0.6,0.5,1.2,0.9,1.8,1.4l0.9,0.8l0.9,0.8
				c0.5,0.5,1.2,1.2,1.6,1.9c0.5,0.7,0.9,1.3,1.3,2c0.8,1.4,1.5,2.7,2.1,4.1c1.4,2.8,2.5,5.6,3.6,8.5l-0.3-0.5
				c2.4,2.4,4.7,4.9,7.1,7.4c1.2,1.2,2.3,2.5,3.5,3.7c1.2,1.3,2.3,2.5,3.5,3.8c0.6,0.6,1.1,1.2,1.7,1.9c0.6,0.7,1.1,1.3,1.7,2
				c0.5,0.7,1,1.4,1.5,2.2l0.7,1.1l0.6,1.2c0.2,0.4,0.4,0.8,0.5,1.2c0.2,0.4,0.3,0.8,0.5,1.2c0.3,0.8,0.5,1.7,0.6,2.6
				c0.1,0.9,0.1,1.8,0,2.6C126.3,120.1,126,121,125.5,121.7"/>
			<path id="Fill-13" class="st0" d="M126.9,124.5l-4.8-2.7c0.2-0.4,0.2-0.9,0.2-1.3c0-0.5-0.1-1.1-0.3-1.7
				c-0.2-0.7-0.4-1.3-0.7-1.9l-0.1-0.2c0-0.1-0.1-0.3-0.2-0.4c-0.1-0.1-0.1-0.2-0.2-0.4c-0.2-0.3-0.3-0.6-0.5-0.8l0-0.1l-0.6-1
				l-0.7-1c-0.2-0.3-0.6-0.7-0.9-1.1c-0.2-0.2-0.4-0.4-0.6-0.6c-0.3-0.3-0.6-0.7-1-1c-0.2-0.2-0.4-0.4-0.6-0.7
				c-0.3-0.3-0.7-0.7-1.1-1c-0.2-0.2-0.5-0.4-0.7-0.6c-0.9-0.8-1.8-1.7-2.7-2.6l-1-1c-0.4-0.4-0.9-0.9-1.3-1.3
				c-0.8-0.8-1.6-1.6-2.4-2.4c-0.8-0.9-1.7-1.7-2.5-2.6c-1.5-1.6-3.1-3.2-4.7-4.8l-0.6-0.7l-0.3-0.8c-0.9-2.6-2-5.2-3.1-7.8
				l-0.2-0.6c-0.7-1.6-1.2-2.8-1.8-3.9l-0.2-0.3c-0.3-0.5-0.5-1-0.8-1.4c-0.3-0.5-0.5-0.8-0.9-1.3L91,75.8l-0.8-0.8l-1.6-1.5
				c-0.7-0.7-1.5-1.4-2.3-2.1c-0.3-0.3-0.7-0.6-1-0.9L58.2,46.1L81.8,60c2.4,1.4,4.9,3,7.9,5.1c1.2,0.8,2.4,1.7,3.8,2.8
				c0.7,0.6,1.4,1,1.9,1.5l1,0.9l0.9,0.8c0.3,0.3,1.3,1.3,2,2.4c0.5,0.7,0.9,1.4,1.4,2.3c0.9,1.6,1.6,3.1,2.2,4.3
				c1.2,2.5,2.3,5.1,3.4,7.9c1.4,1.4,2.7,2.8,4,4.2c0.8,0.9,1.7,1.8,2.5,2.7c0.8,0.9,1.6,1.7,2.4,2.6l2,2.2c0.9,0.9,1.7,1.9,2.6,2.9
				c0.2,0.2,0.4,0.4,0.6,0.7c0.4,0.4,0.8,0.9,1.2,1.3c0.2,0.3,0.4,0.5,0.6,0.7c0.4,0.5,0.8,1,1.2,1.5c0.2,0.3,0.3,0.5,0.5,0.7
				c0.4,0.5,0.8,1.1,1.1,1.7l0.8,1.3l0.6,1.2c0.3,0.6,0.5,1.1,0.7,1.5c0,0.1,0.1,0.2,0.1,0.3c0.1,0.3,0.3,0.7,0.4,1.1
				c0.3,1.1,0.6,2.1,0.7,3.1c0.1,1.2,0.1,2.3,0,3.4l0,0.1C128,122.4,127.6,123.5,126.9,124.5"/>
			<path id="Fill-14" class="st0" d="M82.9,46.7c-1,0.8-2.1,1.6-3.1,2.5c-1,0.8-2.1,1.6-3.2,2.4c-2.2,1.5-4.3,3.1-6.7,4.3
				c-0.7,0.3-1.3,0.5-1.9,0.8c-0.6,0.2-1.2,0.5-1.8,0.8c-0.6,0.3-1.2,0.6-1.7,0.9c-0.6,0.3-1.1,0.6-1.7,1c0.8-1.1,1.9-1.9,2.9-2.7
				c0.5-0.4,1.1-0.8,1.7-1.1c0.6-0.3,1.1-0.7,1.6-1c0.5-0.4,1-0.7,1.5-1.2c0.5-0.4,1-0.8,1.5-1.2c1-0.8,2-1.7,3-2.5l5.9-5.2
				c2-1.7,3.9-3.5,5.9-5.1l2.8-2.4l-0.3,5.4c-0.1,0.6-0.2,1.2-0.3,1.8c-0.1,0.6-0.2,1.2-0.4,1.8c-0.1,0.6-0.3,1.2-0.5,1.7
				c-0.3,1.2-0.8,2.3-1.1,3.4c-0.4,1.1-0.9,2.2-1.4,3.3c-1,2.2-2.1,4.2-3.2,6.3c-0.6,1-1.2,2-1.8,3"/>
			<path id="Fill-15" class="st0" d="M82.6,65.6L78,62.5c0.5-0.8,1-1.6,1.5-2.4l0.3-0.4c1.3-2.2,2.2-4.1,3.1-5.9
				c0.4-0.9,0.8-1.9,1.3-3.1l0.2-0.7c0.3-0.9,0.6-1.7,0.8-2.5l0-0.1c0.2-0.5,0.3-1,0.4-1.5l0.1-0.5c0.1-0.4,0.2-0.7,0.2-1.1L86,44
				c-0.3,0.2-0.5,0.5-0.8,0.7c-0.9,0.8-1.8,1.6-2.8,2.4l0,0l1.9,2.3c-0.8,0.7-1.6,1.3-2.4,1.9l-1.4,1.1c-0.8,0.6-1.7,1.3-2.5,1.9
				c-2.2,1.6-4.5,3.1-7,4.5l-0.1,0c-0.7,0.3-1.4,0.6-1.9,0.8l-0.2,0.1c-0.5,0.2-0.9,0.4-1.4,0.6l-0.2,0.1c-0.6,0.3-1,0.5-1.5,0.7
				c-0.5,0.3-1,0.5-1.3,0.8L47.1,75.6l13.4-17.5c1.1-1.4,2.3-2.4,3.4-3.2c0.7-0.5,1.3-0.9,1.9-1.2l0.1,0c0.5-0.3,1-0.6,1.4-0.9
				l0.3-0.2c0.4-0.3,0.7-0.5,1-0.8c0.5-0.4,1-0.8,1.4-1.2l0.1-0.1c0.8-0.7,1.7-1.4,2.9-2.4l5.8-5.1c0.9-0.8,1.8-1.6,2.7-2.4
				c1-0.9,2.1-1.8,3.1-2.7l7.7-6.5l-0.6,12c-0.1,0.4-0.1,0.9-0.2,1.3l-0.1,0.6c-0.1,0.6-0.2,1.1-0.3,1.6l-0.1,0.4
				c-0.2,0.7-0.4,1.3-0.5,1.9c-0.3,0.9-0.6,1.9-0.9,2.8l-0.3,0.8c-0.5,1.3-1,2.4-1.4,3.4c-0.9,2-1.9,4-3.3,6.4l-0.3,0.5
				C83.7,63.8,83.2,64.7,82.6,65.6"/>
			<path id="Fill-16" class="st0" d="M80.3,59l1.1-3.1c0.3-1.1,0.7-2.1,1.1-3.1c0.4-1,0.6-2.1,1-3.1c0.3-1,0.6-2.1,0.8-3.1
				c0.1-0.5,0.3-1,0.3-1.6c0.1-0.5,0.2-1,0.3-1.6"/>
			<path id="Fill-17" class="st0" d="M82.7,60.9l-5.2-2l1.2-3.2c0.2-0.5,0.3-1,0.5-1.5c0.2-0.6,0.4-1.1,0.6-1.7l0-0.1
				c0.2-0.6,0.4-1.2,0.6-1.9c0.1-0.4,0.3-0.8,0.4-1.2l0.2-0.7c0.2-0.8,0.5-1.6,0.6-2.4l0-0.1c0.1-0.5,0.2-1,0.3-1.4
				c0-0.3,0.1-0.6,0.2-0.8c0.1-0.3,0.1-0.5,0.1-0.7l5.5,0.6c0,0.5-0.1,0.9-0.2,1.2c0,0.2-0.1,0.4-0.1,0.5c-0.1,0.6-0.2,1.3-0.4,1.8
				c-0.2,0.9-0.5,1.8-0.7,2.7L86.1,51c-0.1,0.4-0.2,0.8-0.4,1.2c-0.2,0.7-0.4,1.4-0.7,2.1c-0.2,0.6-0.4,1.2-0.6,1.8
				c-0.2,0.5-0.3,0.9-0.5,1.4l0,0.1L82.7,60.9"/>
			<path id="Fill-18" class="st0" d="M58.2,51.2l2.6-4c0.7-1.2,1.4-2.3,2.1-3.5c1.4-2.3,2.9-4.6,4.4-6.8l1.9-2.8l0.8,3.2
				c0.2,0.7,0.4,1.5,0.6,2.2c0.2,0.8,0.3,1.5,0.4,2.3c0.1,0.8,0.1,1.5,0.2,2.3c0,0.8,0,1.5,0,2.3c0,1.5-0.2,3-0.5,4.5
				c-0.3,1.5-0.6,3-1.2,4.3"/>
			<path id="Fill-19" class="st0" d="M72,56.2l-4.9-2.2c0.4-1,0.7-2.1,1-3.7c0.2-1.4,0.4-2.7,0.4-4c0-0.6,0-1.1,0-1.7l0-0.3
				c0-0.2,0-0.4,0-0.6c0-0.5-0.1-0.9-0.1-1.3l0-0.1c-0.1-0.5-0.1-0.9-0.2-1.4c-1,1.6-1.9,3-2.7,4.4c-0.4,0.7-0.9,1.4-1.3,2.1
				c-0.2,0.4-0.5,0.9-0.8,1.3l0,0.1l-2.5,3.9l-4.5-3.1l2.5-3.9c0.2-0.4,0.5-0.8,0.7-1.2c0.4-0.7,0.9-1.5,1.3-2.2
				c1.2-2,2.6-4.2,4.3-6.8l5.2-7.7l2.5,9.5c0.2,0.6,0.3,1.2,0.4,1.9c0.2,0.8,0.3,1.6,0.4,2.4c0.1,0.6,0.1,1.2,0.2,1.8
				c0,0.2,0,0.4,0,0.6l0,0.5c0,0.7,0,1.4,0,2.1c0,1.5-0.2,3.2-0.5,4.8C73,53.4,72.6,54.9,72,56.2"/>
			<path id="Fill-20" class="st0" d="M68.3,41.5c-0.9,1.1-1.8,2.2-2.7,3.3c-0.9,1.1-2,2.1-3,3c-0.5,0.5-1.1,0.9-1.7,1.4L60,49.8"/>
			<path id="Fill-21" class="st0" d="M69.3,43c-0.8,1.2-1.7,2.3-2.6,3.3c-0.8,0.9-1.7,1.9-2.9,3.1c-0.5,0.5-1.1,1-1.7,1.5L62,51
				l-0.8,0.6l-3-4.6l0.8-0.6c0.5-0.4,0.9-0.8,1.3-1.2c1-1,1.8-1.9,2.5-2.7c0.8-0.9,1.6-2,2.3-3L69.3,43"/>
			<path id="Fill-22" class="st0" d="M69.3,54.4c0-1.5-0.1-2.9-0.2-4.4c-0.1-0.7-0.1-1.4-0.2-2.1c-0.1-0.7-0.2-1.4-0.3-2.1
				c-0.2-1.4-0.4-2.8-0.7-4.1c-0.1-0.7-0.3-1.4-0.5-2"/>
			<path id="Fill-23" class="st0" d="M73,54.2l-5.6,0.2c0-1.3-0.1-2.8-0.2-4.3c0-0.2,0-0.5-0.1-0.8c0-0.4-0.1-0.9-0.1-1.3
				c0-0.2-0.1-0.6-0.1-0.9c0-0.4-0.1-0.8-0.1-1.1c-0.2-1.4-0.4-2.7-0.7-4c-0.1-0.6-0.3-1.2-0.4-1.8l0-0.1l5.4-1.4l0,0.1
				c0.2,0.7,0.3,1.3,0.5,2c0.3,1.4,0.6,2.9,0.8,4.4c0.1,0.4,0.1,0.8,0.2,1.3c0,0.3,0.1,0.6,0.1,0.8c0.1,0.5,0.1,1,0.1,1.5
				c0,0.2,0,0.5,0.1,0.7C72.9,51.3,72.9,52.9,73,54.2"/>
			<path id="Fill-24" class="st0" d="M69.3,54.3c0,0-1.6-0.7-4.5-1.3c-2.9-0.6-7.2-1.1-12.2-0.5c-2.5,0.3-5.2,0.9-7.8,1.9
				c-2.7,1-5.4,2.4-8,4.2c-2.6,1.8-5,3.9-7.3,6.3c-2.3,2.4-4.4,5.1-6.2,7.9c-0.9,1.4-1.9,2.9-2.8,4.3c-0.8,1.5-1.6,2.9-2.4,4.4
				c-1.4,3-2.8,6-3.8,9c-0.6,1.5-0.9,3-1.3,4.5c-0.5,1.5-0.7,2.9-1,4.4c-0.3,1.4-0.4,2.8-0.6,4.2c-0.2,1.4-0.2,2.7-0.3,4
				c-0.1,2.6,0,4.9,0.2,7c0.2,2.1,0.5,3.9,0.8,5.4c0.3,1.5,0.6,2.6,0.8,3.4c0.2,0.8,0.4,1.2,0.4,1.2s-0.2-0.4-0.5-1.1
				c-0.3-0.7-0.8-1.8-1.3-3.3c-0.5-1.5-1-3.2-1.4-5.4c-0.4-2.1-0.7-4.5-0.8-7.1c0-1.3-0.1-2.7,0-4.1c0.1-1.4,0.1-2.9,0.4-4.4
				c0.2-1.5,0.4-3.1,0.8-4.6c0.3-1.6,0.7-3.2,1.2-4.7c0.9-3.2,2.2-6.4,3.7-9.5c0.8-1.6,1.6-3.1,2.5-4.7c0.9-1.5,1.9-2.9,2.8-4.4
				c2-3,4.2-5.7,6.6-8.3c2.4-2.5,5.1-4.7,8-6.5c2.8-1.8,5.8-3.2,8.7-4.1c2.9-0.9,5.8-1.4,8.4-1.5c5.3-0.3,9.7,0.7,12.5,1.7
				c1.4,0.5,2.5,1,3.3,1.3C68.9,54.1,69.3,54.3,69.3,54.3"/>
			<path id="Fill-25" class="st0" d="M69.6,56.8c0,0-1.5-0.6-4.1-1.1c-3.8-0.8-7.6-0.9-11.4-0.4c-2.5,0.3-4.9,0.9-7.3,1.8
				c-2.5,0.9-5,2.2-7.4,3.9c-2.2,1.5-4.5,3.4-6.9,5.9c-1.7,1.7-3.3,3.7-4.9,5.9c-0.3,0.5-0.7,1-1,1.5l-2.8,4.2l-2.3,4.2
				c-1.3,2.8-2.7,5.7-3.6,8.5l-0.1,0.2c-0.4,0.9-0.6,1.8-0.9,2.8c-0.1,0.5-0.2,0.9-0.4,1.4c-0.4,1.1-0.6,2.2-0.8,3.4l-0.1,0.8
				c-0.2,0.9-0.3,1.9-0.4,2.9c0,0.3-0.1,0.7-0.1,1l0,0.1c-0.1,0.9-0.2,1.8-0.2,2.8c0,0.3,0,0.6,0,0.9c-0.1,2.1,0,4.3,0.2,6.6
				c0.2,1.7,0.4,3.4,0.7,5c0.4,1.7,0.6,2.6,0.8,3.1c0.2,0.6,0.3,1,0.3,1l-5.1,2.3c0,0-0.2-0.4-0.6-1.3c-0.4-1-0.9-2.1-1.4-3.6
				c-0.4-1.3-1-3.3-1.5-5.7c-0.5-2.7-0.8-5.1-0.8-7.5c0-0.3,0-0.6,0-0.9c0-1.1-0.1-2.2,0-3.5l0-0.3c0.1-1.4,0.1-2.8,0.4-4.3l0.1-0.6
				c0.2-1.4,0.4-2.7,0.7-4.2l0.1-0.4c0.3-1.5,0.7-3,1.2-4.6c0.9-3.2,2.2-6.5,3.9-9.8l0-0.1l2.6-4.9l2.8-4.4c0.3-0.4,0.5-0.8,0.8-1.1
				c2-2.8,4-5.2,6.2-7.5c2.5-2.6,5.4-4.9,8.5-6.9c2.9-1.9,6.1-3.3,9.4-4.4c2.9-0.9,6-1.5,9.2-1.6c4.6-0.2,9.2,0.4,13.6,1.8
				c1.5,0.5,2.7,1,3.6,1.4c0.8,0.4,1.3,0.6,1.3,0.7L69.6,56.8"/>
			<path id="Fill-26" class="st0" d="M120.1,128.4c-1.5,1.1-3.1,2.1-4.8,2.9c-1.7,0.8-3.6,1.4-5.6,1.4c-1,0-2-0.1-3-0.5
				c-1-0.4-1.9-1-2.6-1.7c-0.4-0.4-0.7-0.8-1-1.2c-0.1-0.2-0.3-0.4-0.4-0.6l-0.3-0.6c-0.5-0.8-1-1.5-1.5-2.3c-1-1.5-2.1-3-3.2-4.4
				c-0.6-0.7-1.2-1.4-1.8-1.9c-0.6-0.6-1.3-1.1-1.9-1.5c-0.6-0.3-1.7-0.8-2.5-1.3c-0.9-0.5-1.7-1-2.5-1.5c-0.8-0.5-1.6-1.1-2.3-1.7
				c-0.8-0.6-1.5-1.2-2.2-1.9l-0.3-0.2c-1.3,0.7-0.4,1.7-1.8,2.2c-1.3,0.5-2.6,1-4,1.3c-1.4,0.4-2.8,0.6-4.2,0.7
				c-1.4,0.1-2.9,0.1-4.3,0c-0.7-0.1-1.5-0.2-2.2-0.4c-0.7-0.2-1.4-0.4-2.1-0.7c-0.7-0.3-1.4-0.6-2-0.9l-1.8-0.9
				c-2.4-1.3-4.8-2.6-7.1-4.2c-2.3-1.6-4.4-3.6-6-6c-0.8-1.2-1.4-2.5-1.8-3.9c-0.4-1.4-0.6-2.8-0.6-4.2c0-1.4,0.2-2.8,0.4-4.1
				c0.2-0.7,0.3-1.3,0.5-2c0.2-0.6,0.4-1.3,0.7-1.9c0.5-1.3,1.1-2.5,1.7-3.7c0.6-1.2,1.4-2.3,2.1-3.4c-0.6,1.2-1.1,2.4-1.6,3.7
				c-0.5,1.2-0.9,2.5-1.3,3.7c-0.2,0.6-0.3,1.3-0.5,1.9c-0.1,0.6-0.2,1.3-0.3,1.9c-0.1,1.3-0.2,2.6-0.1,3.8c0.1,1.3,0.4,2.5,0.8,3.6
				c0.5,1.2,1,2.2,1.8,3.2c1.4,2,3.5,3.6,5.6,5c2.2,1.4,4.5,2.6,6.9,3.8c0.6,0.3,1.2,0.6,1.8,0.9c0.2,0.1,0.3,0.2,0.4,0.2l0.4,0.2
				l0.8,0.4c0.5,0.2,1.1,0.4,1.7,0.5c0.6,0.1,1.2,0.2,1.8,0.3c1.2,0.1,2.5,0.1,3.7,0c0.6-0.1,1.2-0.1,1.9-0.3
				c0.6-0.1,1.2-0.2,1.9-0.4c1.2-0.3,2.5-0.7,3.7-1.2c1.2-0.5,2.4-1,3.5-1.6l1-0.5l0.8,0.7c0.6,0.6,1.3,1.2,2,1.7
				c0.7,0.6,1.4,1.1,2.1,1.7c0.7,0.5,1.5,1,2.2,1.5c0.4,0.2,0.7,0.4,1.1,0.6c0.4,0.2,0.8,0.4,1.3,0.7c0.9,0.6,1.7,1.3,2.4,2
				c0.7,0.7,1.3,1.5,1.9,2.2c1.2,1.5,2.2,3.1,3.1,4.8c0.5,0.8,0.9,1.6,1.4,2.5l0.3,0.6c0.1,0.2,0.2,0.4,0.3,0.6
				c0.2,0.4,0.4,0.7,0.7,1c1,1.3,2.6,2,4.4,2.1c1.7,0.1,3.6-0.3,5.3-0.8C116.7,130.1,118.4,129.3,120.1,128.4"/>
			<path id="Fill-27" class="st0" d="M121.9,131.5c-1.7,1.3-3.5,2.4-5.4,3.3c-2.4,1.1-4.6,1.6-6.7,1.7c-1.5,0-2.8-0.2-4.1-0.7
				c-1.4-0.5-2.6-1.3-3.7-2.4c-0.5-0.5-0.9-1-1.3-1.6c-0.2-0.3-0.4-0.5-0.5-0.9l-0.3-0.5c-0.4-0.7-0.9-1.4-1.3-2.1l-0.1-0.1
				c-1.1-1.7-2.1-3-3-4.1c-0.5-0.6-1-1.2-1.6-1.7l-0.1-0.1c-0.6-0.6-1.1-0.9-1.4-1.1c-0.2-0.1-0.5-0.2-0.8-0.4
				c-0.5-0.3-1.1-0.6-1.7-0.9c-0.8-0.5-1.7-1-2.7-1.7c-0.8-0.6-1.7-1.2-2.5-1.8c-0.1-0.1-0.2-0.2-0.3-0.2c-0.4,0.3-0.8,0.6-1.3,0.8
				c-1.4,0.6-2.9,1-4.3,1.4c-1.7,0.4-3.2,0.7-4.7,0.8c-1.5,0.2-3.1,0.1-4.9,0l-0.1,0c-0.8-0.1-1.6-0.3-2.4-0.4l-0.3-0.1
				c-0.2-0.1-0.4-0.1-0.6-0.2c-0.5-0.2-1.1-0.3-1.7-0.6l-0.1,0c-0.2-0.1-0.4-0.2-0.6-0.3c-0.5-0.2-1.1-0.5-1.6-0.8l-1.8-1
				c-2.4-1.3-4.9-2.7-7.3-4.4c-2.9-2.1-5.1-4.3-6.7-6.8c-0.9-1.5-1.7-3-2.1-4.6c-0.4-1.6-0.7-3.2-0.7-4.9c0-1.5,0.1-3.1,0.5-4.8
				c0.2-0.8,0.4-1.6,0.6-2.2l0.1-0.2c0.1-0.2,0.1-0.4,0.2-0.6c0.1-0.4,0.3-0.9,0.5-1.4c0.5-1.2,1.1-2.5,1.8-3.9
				c0.7-1.2,1.4-2.4,2.1-3.5l0.1-0.2l4.8,2.6c-0.5,1-1,2.2-1.5,3.5c-0.5,1.2-0.9,2.4-1.2,3.5l0,0.1c-0.1,0.3-0.2,0.7-0.3,1
				c-0.1,0.2-0.1,0.4-0.2,0.7c-0.1,0.5-0.2,1.1-0.3,1.7c-0.1,1.2-0.2,2.3-0.1,3.3c0.1,1.1,0.3,2.1,0.7,3c0.4,0.9,0.8,1.8,1.4,2.6
				c1.1,1.5,2.6,2.9,4.9,4.4c2,1.3,4.3,2.5,6.6,3.7l0.4,0.2c0.5,0.2,1,0.5,1.4,0.7c0,0,0.1,0.1,0.2,0.1c0,0,0.1,0,0.1,0.1l1.2,0.5
				c0.1,0.1,0.4,0.1,0.7,0.2c0.2,0.1,0.4,0.1,0.6,0.2c0.5,0.1,1,0.2,1.4,0.2c1.2,0.1,2.2,0.1,3.1,0c0.6-0.1,1.1-0.1,1.6-0.2l0.2,0
				c0.5-0.1,1-0.2,1.6-0.3c1.1-0.3,2.3-0.6,3.3-1.1c1.1-0.4,2.3-0.9,3.2-1.4l2.7-1.5l2.3,2.1c0.5,0.5,1.1,1,1.9,1.7
				c0.7,0.6,1.4,1.1,2,1.6c0.7,0.5,1.4,1,2,1.4c0.3,0.2,0.6,0.4,0.9,0.5l0.1,0c0.4,0.2,0.9,0.4,1.5,0.8c1.1,0.7,2.1,1.5,3,2.5
				c0.8,0.8,1.4,1.6,2.1,2.5c1.1,1.5,2.2,3.1,3.3,5.1c0.5,0.8,0.9,1.6,1.4,2.7l0.4,0.8c0,0,0,0.1,0.1,0.1l0.1,0.2
				c0.1,0.2,0.3,0.4,0.4,0.6c0.5,0.6,1.3,1,2.4,1.1c1.2,0.1,2.6-0.1,4.3-0.7c1.6-0.5,3.1-1.2,4.5-2L121.9,131.5"/>
			<path id="Fill-28" class="st0" d="M47.3,95c0,0,0.2,0.2,0.5,0.5c0.3,0.4,0.6,0.9,0.9,1.5c0.6,1.3,1.1,3,1.2,4.8
				c0.1,1.8-0.2,3.6-0.7,4.9c-0.5,1.3-1.2,2.1-1.2,2.1s-0.1-0.2-0.3-0.6c-0.2-0.4-0.4-0.9-0.6-1.6c-0.4-1.3-0.7-3-0.8-4.7
				c-0.1-1.7,0.1-3.4,0.4-4.7c0.2-0.7,0.3-1.2,0.5-1.6C47.2,95.2,47.3,95,47.3,95"/>
			<path id="Fill-29" class="st0" d="M50.3,109.8L50.3,109.8l-2.8,3.6l-2.2-3.8c-0.1-0.1-0.2-0.4-0.5-0.9c-0.2-0.5-0.4-1.1-0.6-1.8
				c-0.5-1.5-0.8-3.4-0.8-5.3c-0.1-1.9,0.1-3.8,0.4-5.3c0.2-0.7,0.3-1.4,0.5-1.9c0.2-0.5,0.3-0.8,0.3-0.9l1.8-4l3.1,3.3
				c0.1,0.1,0.3,0.4,0.7,0.9c0.3,0.4,0.7,1,1.1,1.9c0.7,1.6,1.2,3.7,1.3,5.7c0.1,2-0.2,4.1-0.8,5.8
				C51.3,108.5,50.5,109.6,50.3,109.8"/>
			<path id="Fill-30" class="st0" d="M109,106c0,0-0.7-0.5-1.8-1.4c-1.1-0.9-2.8-2.2-4.7-3.8c-1.9-1.6-4.1-3.4-6.4-5.4
				c-0.3-0.2-0.6-0.5-0.9-0.7L95,94.7l-0.1-0.1c-0.2-0.1,0.2,0.1,0.2,0.1l0,0l0,0l-0.1,0l-0.3-0.1c-0.1,0,0,0.1,0,0.1
				c0.1,0-0.3,0-0.5,0.1L93.1,95c-0.8,0.2-1.9,0.5-3.1,0.3c-0.6-0.1-1.2-0.4-1.7-0.7c-0.5-0.3-0.9-0.8-1.2-1.2
				c-0.4-0.4-0.6-0.8-0.8-1.3l-0.6-1.1c-0.4-0.7-0.7-1.3-1.2-1.9c-0.9-1.3-1.8-2.5-2.7-3.7c-1-1.1-1.9-2.3-2.8-3.3
				c-0.9-1-1.8-2-2.7-2.8c-0.9-0.9-1.7-1.6-2.4-2.3c-0.7-0.7-1.4-1.3-1.9-1.8c-1.1-1-1.7-1.5-1.7-1.5s0.2,0.1,0.5,0.3
				c0.3,0.2,0.9,0.4,1.5,0.8c0.6,0.3,1.4,0.8,2.3,1.3c0.9,0.5,1.8,1.2,2.8,1.9c1,0.7,2.1,1.6,3.2,2.5c1.1,0.9,2.2,2,3.3,3.1
				c1.1,1.2,2.2,2.4,3.2,3.8c0.5,0.7,1,1.4,1.4,2.2l0.6,1.1c0.2,0.3,0.3,0.6,0.5,0.8c0.4,0.5,0.7,0.7,1,0.8c0.4,0.1,1,0,1.7-0.2
				c0.4-0.1,0.8-0.2,1.3-0.3c0.5-0.1,1-0.2,1.9,0c0.2,0,0.5,0.1,0.6,0.2l0.3,0.1l0.1,0l0.2,0.1l0.1,0.1l0.3,0.2
				c0.4,0.3,0.6,0.6,0.9,0.8c1.2,1.1,2.2,2.2,3.2,3.2c1,1,1.9,2,2.7,3c1.6,1.9,2.9,3.5,3.8,4.6C108.5,105.4,109,106,109,106"/>
			<path id="Fill-31" class="st0" d="M109.9,107l-1.1-0.8c0,0-0.7-0.5-1.8-1.4c-1.6-1.2-3.1-2.5-4.6-3.8l-6.5-5.6
				c-0.2-0.2-0.4-0.4-0.6-0.5L95,94.8l-0.1-0.1c0,0-0.1,0-0.1,0c-0.1,0-0.3,0-0.4,0.1l-1.2,0.3c-0.8,0.2-1.9,0.5-3.1,0.3
				c-0.6-0.1-1.3-0.4-1.8-0.7c-0.5-0.4-1-0.8-1.3-1.2c-0.3-0.4-0.5-0.8-0.7-1.1l-0.7-1.2c-0.4-0.8-0.8-1.3-1.2-1.9
				c-1-1.4-1.9-2.6-2.7-3.6l-0.3-0.4c-0.9-1-1.7-2-2.5-2.9c-1-1.1-1.9-2-2.7-2.8l-2.4-2.3l-1.9-1.8l-2.8-2.5l1.9,0.9
				c0.1,0.1,0.2,0.1,0.4,0.2c0.3,0.2,0.7,0.3,1.1,0.6c0.8,0.4,1.5,0.9,2.3,1.3c0.7,0.4,1.7,1.1,2.8,1.9c1.2,0.9,2.2,1.7,3.2,2.5
				c1.3,1.1,2.3,2.1,3.3,3.1c1.1,1.2,2.2,2.4,3.1,3.8c0.6,0.8,1,1.5,1.4,2.2l0.7,1.2c0.1,0.2,0.3,0.5,0.4,0.6
				c0.3,0.4,0.6,0.7,0.9,0.7c0.2,0.1,0.7,0.1,1.6-0.2l0.3-0.1c0.3-0.1,0.6-0.2,1-0.2l0.2,0c0.5-0.1,0.9-0.1,1.7,0
				c0.2,0,0.5,0.1,0.6,0.2l0.6,0.3l0.4,0.3c0.3,0.2,0.5,0.4,0.7,0.6l0.2,0.2c1,1,1.9,1.9,2.8,2.9l0.3,0.3c1,1,1.9,2.1,2.7,3
				c1.3,1.5,2.5,3,3.8,4.6c0.9,1.1,1.4,1.8,1.4,1.8L109.9,107z M95.5,94.6c0.2,0.1,0.4,0.3,0.6,0.5l0.2,0.2l6.4,5.4
				c1.5,1.3,3,2.5,4.6,3.8c0.2,0.1,0.4,0.3,0.5,0.4c-0.1-0.2-0.3-0.3-0.4-0.5c-1.3-1.6-2.5-3.1-3.8-4.6c-0.8-1-1.7-1.9-2.6-3
				l-0.3-0.3c-0.9-0.9-1.8-1.9-2.8-2.9l-0.2-0.2c-0.2-0.2-0.4-0.4-0.7-0.6l-0.4-0.3L96,92.1c-0.1,0-0.3-0.1-0.5-0.2
				c-0.7-0.2-1.1-0.1-1.5,0l-0.2,0c-0.3,0.1-0.6,0.1-0.9,0.2l-0.3,0.1c-0.8,0.2-1.4,0.3-1.8,0.2c-0.4-0.1-0.8-0.3-1.2-0.9
				c-0.2-0.2-0.3-0.4-0.5-0.7l-0.7-1.2C88,89,87.5,88.3,87,87.5c-1-1.4-2.1-2.6-3.1-3.7c-0.9-1-2-2-3.2-3.1
				c-0.9-0.8-1.9-1.6-3.1-2.5c-1.1-0.8-2.1-1.5-2.8-1.9c-0.7-0.5-1.5-0.9-2.2-1.3c-0.2-0.1-0.4-0.2-0.6-0.3l2.4,2.2l2.4,2.3
				c0.8,0.8,1.7,1.7,2.7,2.8c0.8,0.9,1.6,1.9,2.5,2.9l0.3,0.4c0.8,1,1.7,2.2,2.7,3.7c0.4,0.6,0.7,1.2,1.2,1.9l0.7,1.2
				c0.2,0.4,0.4,0.7,0.7,1.1c0.3,0.4,0.7,0.8,1.2,1.1c0.5,0.3,1.1,0.6,1.6,0.7c1.2,0.2,2.1-0.1,2.9-0.3l1.1-0.3
				c0.1,0,0.3-0.1,0.4-0.1l0.1-0.1l0.2,0l0.1,0c0.1,0,0.2,0.1,0.3,0.2L95.5,94.6L95.5,94.6z"/>
		</g>
	</g>
</g>
<g>
	<path class="st0" d="M185.3,85.8H199c15.7,0,25,8.5,25,25.4c0,17-9.3,25.8-24.5,25.8h-14.1V85.8z M198.4,129.7
		c10.3,0,16.2-5.9,16.2-18.5c0-12.6-5.9-18.1-16.2-18.1h-4v36.5H198.4z"/>
	<path class="st0" d="M231,117.8c0-12.5,8.7-20.2,17.7-20.2c10.4,0,15.9,7.5,15.9,18.3c0,1.7-0.2,3.4-0.4,4.4h-24.4
		c0.8,6.8,5.1,10.7,11.3,10.7c3.3,0,6.1-1,8.9-2.8l3.1,5.6c-3.7,2.5-8.3,4.2-13.2,4.2C239.3,138,231,130.5,231,117.8z M256.8,114.1
		c0-5.9-2.6-9.5-7.9-9.5c-4.5,0-8.4,3.4-9.2,9.5H256.8z"/>
	<path class="st0" d="M270.7,117.8c0-12.5,8.7-20.2,17.7-20.2c10.4,0,15.9,7.5,15.9,18.3c0,1.7-0.2,3.4-0.4,4.4h-24.4
		c0.8,6.8,5.1,10.7,11.3,10.7c3.3,0,6.1-1,8.9-2.8l3.1,5.6c-3.7,2.5-8.3,4.2-13.2,4.2C279,138,270.7,130.5,270.7,117.8z
		 M296.5,114.1c0-5.9-2.6-9.5-7.9-9.5c-4.5,0-8.4,3.4-9.2,9.5H296.5z"/>
	<path class="st0" d="M313,98.6h7.4l0.7,4.1h0.2c3.2-2.8,7.4-5,11.6-5c9.6,0,15.1,7.7,15.1,19.6c0,13.2-7.9,20.8-16.4,20.8
		c-3.4,0-6.8-1.5-9.9-4.2l0.3,6.4v12.1h-9V98.6z M338.8,117.3c0-7.7-2.5-12.2-8.4-12.2c-2.8,0-5.4,1.4-8.4,4.3v17.9
		c2.8,2.4,5.5,3.2,7.7,3.2C334.8,130.5,338.8,126,338.8,117.3z"/>
	<path class="st0" d="M359.3,85.3h4.1l11.1,31.3c1.4,3.9,2.8,7.8,4.2,11.8h0.3c1.4-3.9,2.7-7.8,4.1-11.8l11.1-31.3h4.1v51.7h-2.5
		v-36c0-4.1,0.2-9.2,0.3-13.5h-0.3l-4,11.4l-11.7,32.3h-2.7L365.7,99l-4.1-11.4h-0.3c0.2,4.2,0.3,9.4,0.3,13.5v36h-2.4V85.3z"/>
	<path class="st0" d="M410.8,127.9c0-8.4,7.7-12.3,24.6-14.2c0.2-6.1-1.4-12.9-9.2-12.9c-5.3,0-9.9,2.7-12.2,4.5l-1.3-1.9
		c2.4-1.7,7.5-4.9,13.6-4.9c8.8,0,11.4,6.6,11.4,14.1v24.3h-2l-0.3-5h-0.2c-3.9,3.1-8.6,6-13.6,6C415.9,138,410.8,135,410.8,127.9z
		 M435.4,129.4v-13.6c-16.5,1.9-22.1,5.6-22.1,12.1c0,5.8,3.9,8,8.5,8S430.4,133.6,435.4,129.4z"/>
	<path class="st0" d="M451.7,99.6h2l0.3,6h0.2c3.9-3.9,7.8-6.9,13-6.9c7.7,0,11.3,4.5,11.3,14.3v24.1h-2.4v-23.8
		c0-8.3-2.7-12.4-9.1-12.4c-4.7,0-8.2,2.5-13,7.5v28.7h-2.4V99.6z"/>
	<path class="st0" d="M490.1,127.9c0-8.4,7.7-12.3,24.6-14.2c0.2-6.1-1.4-12.9-9.2-12.9c-5.3,0-9.9,2.7-12.2,4.5l-1.3-1.9
		c2.4-1.7,7.5-4.9,13.6-4.9c8.8,0,11.4,6.6,11.4,14.1v24.3h-2l-0.3-5h-0.2c-3.9,3.1-8.6,6-13.6,6C495.2,138,490.1,135,490.1,127.9z
		 M514.8,129.4v-13.6c-16.5,1.9-22.1,5.6-22.1,12.1c0,5.8,3.9,8,8.5,8S509.7,133.6,514.8,129.4z"/>
	<path class="st0" d="M527.8,144.9c0-3.3,2.2-6.7,5.6-9.2v-0.3c-1.9-1.1-3.3-3.1-3.3-6c0-3.4,2.5-5.8,4.1-6.9v-0.3
		c-2.4-2-4.7-5.8-4.7-10.3c0-7.5,5.6-13.2,12.9-13.2c2,0,3.8,0.5,4.9,0.9h12.5v2.2h-9.1c2.7,2.2,4.5,5.8,4.5,10
		c0,7.5-5.6,13.3-12.9,13.3c-2.2,0-4.7-0.6-6.4-1.7c-1.7,1.4-3.3,3.1-3.3,5.8c0,2.8,1.6,5.2,7.4,5.2h8.3c8.3,0,12.1,2.7,12.1,8.5
		c0,6.3-6.7,12.5-17.2,12.5C533.6,155.4,527.8,151.2,527.8,144.9z M557.9,143c0-4.4-3.1-6.1-9.1-6.1h-8.6c-0.5,0-2.5-0.2-4.5-0.6
		c-3.8,2.5-5.3,5.6-5.3,8.5c0,5,4.7,8.5,13,8.5C552.2,153.2,557.9,148,557.9,143z M552.7,111.8c0-6.7-4.7-11-10.3-11
		s-10.3,4.2-10.3,11c0,6.6,4.9,11.1,10.3,11.1S552.7,118.4,552.7,111.8z"/>
	<path class="st0" d="M564.6,118.4c0-12.2,7.8-19.7,16.1-19.7c8.6,0,14.1,6.1,14.1,17.2c0,0.8,0,1.6-0.2,2.5h-27.6
		c0,10,5.8,17.4,14.7,17.4c4.2,0,7.5-1.4,10.3-3.4l1.1,2c-2.8,1.7-6,3.6-11.6,3.6C572.3,138,564.6,130.6,564.6,118.4z M592.5,116.2
		c0-10.3-4.7-15.4-11.8-15.4c-6.7,0-12.9,5.8-13.6,15.4H592.5z"/>
</g>
</svg>
