<?xml version="1.0" encoding="utf-8"?>
<!-- Generator: Adobe Illustrator 22.0.1, SVG Export Plug-In . SVG Version: 6.00 Build 0)  -->
<svg version="1.1" id="Layer_1" xmlns="http://www.w3.org/2000/svg" xmlns:xlink="http://www.w3.org/1999/xlink" x="0px" y="0px"
	 viewBox="0 0 616 465" style="enable-background:new 0 0 616 465;" xml:space="preserve">
<style type="text/css">
	.st0{fill:#FFFFFF;}
</style>
<title>logo_white_alt</title>
<desc>Created with Sketch.</desc>
<g id="Symbols">
	<g id="logo_white_alt">
		<g id="Group" transform="translate(171.000000, 9.000000)">
			<path id="Fill-11" class="st0" d="M136,0c-7.3,0-40.3,33-86.8,35.4c-8.2,0.5-15.5,1-20.9,1c-25.7,0-26.2-3.9-26.2-3.9
				S-12,174,23,236.1C57.9,298.6,136,350,136,350s77.6-51.4,113-113.9c34.9-62.5,20.9-203.6,20.9-203.6s-0.5,3.9-26.2,3.9
				c-5.8,0-12.6,0-20.9-0.5C176.3,33,143.3,0,136,0z M136,13.6c1.5,1,3.9,2.4,6.3,3.9c15.5,9.7,43.7,28.6,79.6,30.5
				c8.2,0.5,15.5,0.5,21.8,0.5c5.3,0,10.2,0,15-0.5c2.4,36.8,5.8,134.8-20.4,181.8c-27.2,48.5-83,91.1-101.9,104.7
				c-19.4-14.1-74.7-56.7-101.9-104.7C7.4,182.8,10.8,85.3,13.3,48c4.9,0.5,9.7,0.5,15,0.5c6.3,0,13.6,0,21.8-0.5
				c35.9-1.9,64.5-20.4,79.6-30.5C131.6,16,134.1,14.5,136,13.6z"/>
			<path id="Fill-12" class="st0" d="M217.9,211.9c0.6-1.4,0.7-2.9,0.7-4.3c0-1.4-0.3-2.9-0.7-4.2c-0.4-1.4-0.9-2.7-1.5-4
				c-0.3-0.7-0.7-1.3-1-1.9c-0.3-0.6-0.7-1.2-1.1-1.8l-1.2-1.8l-1.3-1.7c-0.8-1.2-1.9-2.2-2.8-3.3c-0.9-1.1-2-2.1-3-3.1
				c-1-1-2.1-2-3.2-3.1c-2.2-2-4.3-4.1-6.4-6.2c-2.1-2.1-4.2-4.1-6.3-6.3c-4.1-4.2-8.4-8.4-12.5-12.7l-0.4-0.4l-0.2-0.5
				c-1.8-4.9-3.8-9.7-5.8-14.5c-1-2.4-2.1-4.8-3.2-7.1c-0.6-1.1-1.2-2.3-1.8-3.3c-0.6-1.1-1.2-1.9-2.1-2.9l-1.3-1.3l-1.4-1.4
				l-2.8-2.7c-1.9-1.8-3.9-3.5-5.9-5.3l-11.9-10.6c4.6,2.7,9.1,5.6,13.5,8.6c2.2,1.5,4.4,3.1,6.5,4.7c1.1,0.8,2.1,1.6,3.2,2.5
				l1.6,1.3l1.6,1.4c0.9,0.8,2,2.1,2.8,3.3c0.8,1.2,1.5,2.3,2.2,3.5c1.4,2.4,2.6,4.8,3.7,7.2c2.4,4.8,4.3,9.7,6.3,14.7l-0.6-0.9
				c4.2,4.2,8.2,8.5,12.3,12.8c2,2.1,4,4.3,6.1,6.5c2,2.2,4.1,4.3,6,6.5c1,1.1,2,2.2,3,3.4c1,1.2,2,2.3,2.9,3.5
				c0.9,1.3,1.8,2.4,2.6,3.8l1.2,1.9l1.1,2c0.4,0.7,0.7,1.4,0.9,2.1c0.3,0.7,0.6,1.4,0.8,2.2c0.5,1.5,0.9,3,1,4.5
				c0.2,1.5,0.2,3.1,0,4.6C219.2,209.2,218.8,210.7,217.9,211.9"/>
			<path id="Fill-13" class="st0" d="M220.3,216.7l-8.3-4.7c0.3-0.7,0.3-1.6,0.3-2.3c0-0.9-0.2-1.9-0.5-3c-0.3-1.2-0.7-2.2-1.2-3.2
				l-0.1-0.3c-0.1-0.2-0.2-0.5-0.4-0.8c-0.1-0.2-0.2-0.4-0.4-0.6c-0.3-0.6-0.6-1-0.8-1.4l-0.1-0.1l-1.1-1.7l-1.3-1.7
				c-0.4-0.6-1-1.2-1.6-1.9c-0.3-0.4-0.7-0.7-1-1.1c-0.5-0.6-1.1-1.2-1.7-1.8c-0.4-0.4-0.8-0.8-1.1-1.2c-0.6-0.6-1.2-1.2-1.9-1.8
				c-0.4-0.4-0.8-0.8-1.2-1.1c-1.6-1.5-3.1-3-4.7-4.6l-1.7-1.7c-0.8-0.8-1.5-1.5-2.3-2.2c-1.4-1.4-2.8-2.7-4.1-4.1
				c-1.5-1.5-2.9-3-4.4-4.5c-2.7-2.7-5.4-5.5-8.1-8.4l-1.1-1.1l-0.5-1.4c-1.6-4.5-3.5-9.1-5.4-13.5l-0.4-1c-1.2-2.8-2.1-4.9-3.1-6.8
				l-0.3-0.5c-0.5-0.9-0.9-1.8-1.3-2.5c-0.5-0.9-0.8-1.3-1.6-2.2l-1.1-1.2l-1.3-1.3l-2.8-2.7c-1.3-1.2-2.6-2.4-4-3.6
				c-0.6-0.5-1.2-1.1-1.8-1.6l-47.3-42.5l41.1,24.1c4.1,2.4,8.5,5.2,13.8,8.9c2,1.4,4.1,2.9,6.7,4.9c1.3,1,2.4,1.8,3.4,2.6l1.7,1.5
				l1.6,1.5c0.6,0.5,2.2,2.2,3.5,4.1c0.8,1.2,1.6,2.4,2.4,3.9c1.5,2.7,2.9,5.5,3.9,7.5c2.1,4.4,3.9,8.9,5.9,13.7
				c2.4,2.4,4.7,4.9,6.9,7.3c1.5,1.5,2.9,3.1,4.4,4.6c1.4,1.5,2.8,3,4.1,4.5l3.5,3.9c1.5,1.6,3,3.3,4.5,5c0.3,0.4,0.7,0.8,1,1.2
				c0.7,0.8,1.4,1.5,2,2.3c0.4,0.5,0.7,0.8,1,1.2c0.7,0.8,1.4,1.7,2.1,2.6c0.3,0.4,0.6,0.8,0.8,1.2c0.6,0.9,1.4,1.9,2,3l1.3,2.2l1,2
				c0.5,1,0.9,1.9,1.2,2.6c0.1,0.2,0.2,0.4,0.2,0.6c0.2,0.5,0.5,1.2,0.7,2c0.6,1.9,1,3.7,1.2,5.3c0.2,2,0.2,4,0,5.8l0,0.2
				C222.2,213.1,221.4,215.1,220.3,216.7"/>
			<path id="Fill-14" class="st0" d="M143.6,81.4c-1.8,1.5-3.6,2.9-5.4,4.3c-1.8,1.4-3.6,2.8-5.5,4.1c-3.8,2.7-7.5,5.3-11.7,7.5
				c-1.1,0.6-2.2,1-3.3,1.4c-1,0.4-2.1,0.9-3.1,1.3c-1,0.5-2,1-3,1.5c-1,0.5-2,1.1-2.9,1.8c1.4-1.8,3.2-3.4,5.1-4.7
				c0.9-0.7,1.9-1.3,2.9-2c1-0.6,2-1.2,2.8-1.8c0.9-0.7,1.8-1.3,2.6-2c0.9-0.7,1.7-1.4,2.6-2.2c1.7-1.4,3.5-2.9,5.2-4.4l10.3-9
				c3.5-2.9,6.8-6,10.3-9l4.9-4.1l-0.5,9.4c-0.1,1.1-0.3,2.1-0.5,3.2c-0.2,1.1-0.4,2.1-0.7,3.1c-0.2,1-0.5,2-0.9,3
				c-0.6,2-1.3,4-2,5.9c-0.8,1.9-1.6,3.8-2.4,5.7c-1.7,3.8-3.6,7.4-5.6,10.9c-1,1.8-2.1,3.5-3.2,5.2"/>
			<path id="Fill-15" class="st0" d="M143.2,114.2l-8.1-5.4c0.9-1.3,1.7-2.7,2.6-4.2l0.4-0.7c2.2-3.8,3.9-7.1,5.3-10.3
				c0.7-1.6,1.4-3.3,2.3-5.4l0.4-1.1c0.5-1.5,1-2.9,1.4-4.3l0-0.1c0.3-0.9,0.6-1.8,0.7-2.6l0.2-0.9c0.2-0.7,0.3-1.3,0.4-1.9l0.1-0.6
				c-0.5,0.4-0.9,0.8-1.4,1.2c-1.6,1.4-3.2,2.8-4.8,4.2l0,0l3.4,4.1c-1.4,1.2-2.8,2.3-4.2,3.3l-2.5,1.9c-1.4,1.1-2.9,2.2-4.4,3.3
				c-3.9,2.8-7.7,5.5-12.2,7.8l-0.1,0.1c-1.2,0.6-2.4,1-3.4,1.4l-0.3,0.1c-0.8,0.3-1.6,0.7-2.5,1.1l-0.4,0.2c-1,0.4-1.8,0.9-2.6,1.3
				c-0.9,0.5-1.7,0.9-2.2,1.4l-30.2,23.7l23.4-30.4c1.8-2.4,4.1-4.2,6-5.6c1.1-0.8,2.3-1.6,3.2-2.2l0.1-0.1c0.9-0.5,1.7-1.1,2.4-1.5
				l0.5-0.4c0.7-0.5,1.3-0.9,1.8-1.4c0.9-0.7,1.7-1.4,2.5-2.1l0.1-0.1c1.4-1.2,3-2.5,5-4.3l10.2-8.9c1.6-1.4,3.2-2.8,4.8-4.2
				c1.8-1.6,3.6-3.2,5.5-4.8l13.3-11.3l-1.1,20.8c-0.1,0.8-0.2,1.5-0.3,2.3l-0.2,1c-0.2,1-0.4,1.9-0.6,2.7l-0.2,0.7
				c-0.3,1.2-0.6,2.3-0.9,3.4c-0.5,1.6-1,3.3-1.6,4.8l-0.5,1.4c-0.9,2.3-1.7,4.2-2.5,5.9c-1.5,3.4-3.4,7-5.8,11.2l-0.5,0.8
				C145.1,111.1,144.2,112.7,143.2,114.2"/>
			<path id="Fill-16" class="st0" d="M139.2,102.8l2-5.4c0.6-1.8,1.3-3.6,1.9-5.4c0.6-1.8,1.1-3.7,1.7-5.5c0.5-1.8,1.1-3.6,1.4-5.5
				c0.2-0.9,0.4-1.8,0.6-2.7c0.1-0.9,0.4-1.8,0.5-2.7"/>
			<path id="Fill-17" class="st0" d="M143.4,106l-9-3.4l2-5.6c0.3-0.9,0.6-1.7,0.9-2.6c0.3-1,0.7-2,1-3l0-0.1c0.4-1.1,0.7-2.1,1-3.3
				c0.2-0.7,0.4-1.4,0.7-2.2l0.3-1.2c0.4-1.4,0.8-2.8,1.1-4.1l0-0.1c0.2-0.9,0.4-1.7,0.5-2.4c0.1-0.5,0.2-1,0.3-1.4
				c0.1-0.4,0.2-0.9,0.2-1.2l9.5,1.1c-0.1,0.8-0.2,1.5-0.4,2.1c-0.1,0.3-0.1,0.6-0.2,0.9c-0.2,1.1-0.4,2.2-0.7,3.2
				c-0.4,1.6-0.8,3.2-1.2,4.7l-0.4,1.4c-0.2,0.7-0.4,1.4-0.6,2.1c-0.4,1.2-0.7,2.4-1.2,3.7c-0.3,1.1-0.7,2.1-1.1,3.1
				c-0.3,0.8-0.6,1.6-0.9,2.5l0,0.1L143.4,106"/>
			<path id="Fill-18" class="st0" d="M100.6,89.1l4.5-6.9c1.2-2,2.4-4.1,3.6-6.1c2.4-4,5-7.9,7.6-11.8l3.3-4.9l1.5,5.6
				c0.3,1.3,0.7,2.6,1,3.9c0.3,1.3,0.5,2.6,0.7,4c0.2,1.3,0.2,2.7,0.4,4c0,1.3,0.1,2.7,0,4c-0.1,2.7-0.4,5.3-0.8,7.9
				c-0.5,2.6-1.1,5.1-2.1,7.6"/>
			<path id="Fill-19" class="st0" d="M124.7,97.9l-8.6-3.8c0.7-1.7,1.3-3.7,1.8-6.5c0.4-2.4,0.7-4.7,0.7-7c0-1,0-2,0-3l0-0.5
				c0-0.4-0.1-0.7-0.1-1.1c-0.1-0.8-0.1-1.6-0.2-2.3l0-0.2c-0.1-0.8-0.2-1.6-0.4-2.4c-1.8,2.8-3.3,5.2-4.8,7.6
				c-0.8,1.3-1.5,2.5-2.2,3.7c-0.4,0.7-0.9,1.5-1.3,2.2l-0.1,0.1l-4.4,6.8l-7.8-5.3l4.3-6.8c0.4-0.7,0.8-1.4,1.2-2.1
				c0.8-1.3,1.5-2.6,2.3-3.9c2.1-3.5,4.5-7.3,7.5-11.8l9-13.5l4.3,16.6c0.3,1,0.6,2.1,0.8,3.2c0.3,1.5,0.5,2.8,0.7,4.2
				c0.2,1.1,0.2,2.1,0.3,3.1c0,0.4,0,0.7,0.1,1.1l0,0.9c0,1.2,0.1,2.4,0,3.6c-0.1,2.7-0.4,5.5-0.9,8.4
				C126.4,92.9,125.7,95.6,124.7,97.9"/>
			<path id="Fill-20" class="st0" d="M118.3,72.2c-1.5,2-3.1,3.9-4.7,5.7c-1.6,1.9-3.4,3.6-5.3,5.3c-0.9,0.8-1.9,1.6-2.9,2.4
				l-1.6,1.1"/>
			<path id="Fill-21" class="st0" d="M119.9,74.9c-1.5,2.1-3,4-4.5,5.8c-1.4,1.6-2.9,3.3-5.1,5.4c-0.9,0.9-1.9,1.7-2.9,2.6l-0.2,0.1
				l-1.4,1l-5.2-7.9l1.3-1c0.9-0.7,1.6-1.4,2.3-2c1.8-1.8,3.2-3.2,4.4-4.7c1.4-1.7,2.8-3.4,4.1-5.3L119.9,74.9"/>
			<path id="Fill-22" class="st0" d="M119.9,94.7c-0.1-2.6-0.2-5.1-0.4-7.6c-0.1-1.2-0.2-2.5-0.3-3.7c-0.2-1.2-0.3-2.5-0.5-3.7
				c-0.3-2.4-0.7-4.8-1.2-7.2c-0.2-1.2-0.5-2.4-0.8-3.5"/>
			<path id="Fill-23" class="st0" d="M126.4,94.4l-9.7,0.3c-0.1-2.2-0.2-4.8-0.4-7.4c0-0.4-0.1-0.9-0.1-1.4
				c-0.1-0.8-0.1-1.5-0.2-2.3c-0.1-0.4-0.1-1-0.2-1.5c-0.1-0.7-0.2-1.3-0.3-2c-0.3-2.4-0.7-4.7-1.2-7c-0.2-1.1-0.5-2.1-0.7-3.1
				l-0.1-0.2l9.4-2.4l0.1,0.2c0.3,1.1,0.6,2.3,0.8,3.5c0.5,2.5,1,5.1,1.3,7.6c0.1,0.7,0.2,1.5,0.3,2.3c0.1,0.5,0.1,1,0.2,1.4
				c0.1,1,0.2,1.8,0.2,2.7c0,0.4,0.1,0.9,0.1,1.3C126.2,89.3,126.3,92.1,126.4,94.4"/>
			<path id="Fill-24" class="st0" d="M119.9,94.5c0,0-2.8-1.2-7.9-2.2c-5.1-1-12.6-1.9-21.3-0.8c-4.4,0.6-9,1.6-13.7,3.4
				c-4.7,1.7-9.3,4.2-13.8,7.3c-4.5,3.1-8.7,6.8-12.7,11c-4,4.1-7.6,8.9-10.8,13.7c-1.6,2.5-3.3,5-4.9,7.6c-1.4,2.6-2.8,5.1-4.1,7.6
				c-2.5,5.2-4.9,10.4-6.6,15.7c-1,2.6-1.6,5.2-2.3,7.8c-0.8,2.6-1.2,5.1-1.7,7.6c-0.6,2.5-0.7,4.9-1,7.3c-0.4,2.4-0.4,4.7-0.5,6.9
				c-0.2,4.4,0,8.5,0.3,12.2c0.3,3.6,0.8,6.8,1.3,9.3c0.5,2.6,1,4.6,1.4,5.9c0.4,1.3,0.7,2.1,0.7,2.1s-0.4-0.7-1-2
				c-0.6-1.3-1.4-3.2-2.2-5.8c-0.8-2.5-1.7-5.7-2.4-9.3c-0.7-3.7-1.3-7.8-1.4-12.4c0-2.3-0.2-4.7,0-7.2c0.1-2.5,0.2-5.1,0.6-7.7
				c0.4-2.6,0.7-5.3,1.3-8c0.6-2.7,1.2-5.5,2.1-8.2c1.6-5.6,3.8-11.1,6.5-16.6c1.4-2.7,2.9-5.4,4.3-8.2c1.6-2.5,3.2-5.1,4.8-7.6
				c3.5-5.2,7.3-10,11.6-14.4c4.2-4.4,9-8.2,13.9-11.3c4.9-3.2,10.1-5.5,15.2-7.1c5.1-1.6,10.1-2.4,14.7-2.6
				c9.2-0.5,16.8,1.3,21.8,2.9c2.5,0.8,4.4,1.7,5.7,2.3C119.3,94.2,119.9,94.5,119.9,94.5"/>
			<path id="Fill-25" class="st0" d="M120.5,98.9c0,0-2.6-1-7.1-1.9c-6.6-1.3-13.3-1.6-19.9-0.8c-4.3,0.5-8.6,1.6-12.7,3.1
				c-4.3,1.6-8.6,3.8-12.9,6.7c-3.9,2.6-7.9,6-12,10.3c-2.9,3-5.8,6.5-8.5,10.3c-0.6,0.9-1.2,1.7-1.8,2.6l-4.8,7.3l-4,7.3
				c-2.3,4.8-4.7,9.9-6.3,14.9l-0.1,0.3c-0.6,1.5-1.1,3.2-1.5,4.9c-0.2,0.8-0.4,1.6-0.7,2.4c-0.6,2-1,3.9-1.4,6l-0.3,1.3
				c-0.4,1.6-0.6,3.3-0.8,5.1c-0.1,0.6-0.1,1.1-0.2,1.7l0,0.1c-0.2,1.6-0.3,3.2-0.4,4.8c0,0.5,0,1-0.1,1.6c-0.1,3.6,0,7.5,0.3,11.4
				c0.3,3,0.7,5.9,1.3,8.8c0.6,2.9,1.1,4.6,1.3,5.5c0.3,1.1,0.6,1.7,0.6,1.8l-8.8,3.9c0,0-0.4-0.7-1.1-2.2c-0.8-1.7-1.6-3.7-2.4-6.3
				c-0.7-2.3-1.8-5.7-2.5-9.9c-0.9-4.6-1.4-8.9-1.5-13.1c0-0.5,0-1,0-1.5c-0.1-1.8-0.1-3.9,0-6l0-0.5c0.1-2.4,0.2-4.9,0.7-7.5
				l0.1-1.1c0.3-2.4,0.6-4.8,1.3-7.3l0.1-0.6c0.6-2.6,1.1-5.2,2.1-7.9c1.6-5.5,3.9-11.3,6.7-17.1l0.1-0.2l4.5-8.5l4.9-7.7
				c0.5-0.7,0.9-1.3,1.4-2c3.4-4.9,7-9.1,10.8-13c4.4-4.5,9.4-8.5,14.8-12c5.1-3.2,10.6-5.8,16.4-7.6c5-1.6,10.4-2.5,16-2.8
				c8.1-0.4,16.1,0.6,23.7,3.1c2.7,0.9,4.8,1.8,6.3,2.5c1.4,0.7,2.2,1.1,2.3,1.2L120.5,98.9"/>
			<path id="Fill-26" class="st0" d="M208.4,223.6c-2.6,2-5.4,3.7-8.4,5.1c-3,1.4-6.3,2.4-9.8,2.5c-1.7,0-3.5-0.2-5.3-0.8
				c-1.7-0.6-3.3-1.7-4.6-3c-0.6-0.7-1.2-1.3-1.7-2.1c-0.3-0.4-0.5-0.7-0.7-1.1l-0.6-1.1c-0.8-1.3-1.7-2.7-2.5-4
				c-1.7-2.6-3.6-5.2-5.6-7.6c-1-1.2-2-2.4-3.1-3.4c-1.1-1-2.2-2-3.4-2.6c-1-0.6-2.9-1.4-4.3-2.2c-1.5-0.8-2.9-1.7-4.3-2.7
				c-1.4-0.9-2.7-1.9-4.1-3c-1.3-1-2.6-2.1-3.9-3.2l-0.5-0.4c-2.3,1.3-0.8,3-3.1,3.9c-2.3,0.9-4.6,1.7-7,2.3
				c-2.4,0.6-4.8,1.1-7.3,1.3c-2.5,0.3-5,0.2-7.6,0c-1.3-0.2-2.5-0.4-3.8-0.7c-1.2-0.4-2.5-0.7-3.7-1.2c-1.1-0.5-2.5-1.1-3.4-1.6
				l-3.1-1.7c-4.1-2.2-8.4-4.5-12.3-7.3c-4-2.8-7.7-6.2-10.4-10.4c-1.4-2.1-2.5-4.4-3.2-6.8c-0.7-2.4-1-4.9-1.1-7.3
				c0-2.4,0.3-4.9,0.8-7.2c0.3-1.2,0.6-2.3,0.9-3.5c0.4-1.1,0.7-2.3,1.2-3.3c0.9-2.2,1.9-4.3,3-6.4c1.1-2.1,2.4-4,3.6-6
				c-1,2.1-1.9,4.2-2.8,6.4c-0.9,2.1-1.6,4.3-2.2,6.5c-0.3,1.1-0.5,2.2-0.8,3.3c-0.2,1.1-0.4,2.2-0.6,3.3c-0.2,2.2-0.3,4.5-0.2,6.7
				c0.2,2.2,0.7,4.3,1.4,6.4c0.8,2,1.8,3.9,3.1,5.7c2.5,3.5,6,6.3,9.8,8.8c3.8,2.5,7.9,4.5,12,6.6c1,0.5,2.1,1.1,3.2,1.6
				c0.3,0.1,0.5,0.3,0.8,0.4l0.7,0.3l1.4,0.6c1,0.4,2,0.6,3,0.9c1,0.2,2.1,0.4,3.1,0.5c2.1,0.2,4.3,0.2,6.5-0.1
				c1.1-0.1,2.2-0.2,3.3-0.5c1.1-0.2,2.2-0.4,3.3-0.7c2.2-0.5,4.3-1.2,6.4-2c2.1-0.8,4.2-1.7,6-2.7l1.7-0.9l1.4,1.3
				c1.1,1,2.3,2.1,3.6,3c1.2,1,2.5,2,3.7,2.9c1.3,0.9,2.6,1.8,3.9,2.6c0.7,0.4,1.3,0.7,2,1.1c0.7,0.4,1.4,0.7,2.3,1.3
				c1.6,1,3,2.2,4.2,3.5c1.2,1.3,2.3,2.6,3.3,3.9c2,2.7,3.8,5.5,5.4,8.3c0.8,1.4,1.6,2.9,2.4,4.4l0.5,1.1c0.1,0.3,0.3,0.6,0.5,1
				c0.3,0.6,0.8,1.2,1.2,1.8c1.8,2.2,4.6,3.4,7.6,3.6c3,0.2,6.2-0.4,9.3-1.4C202.6,226.5,205.5,225.2,208.4,223.6"/>
			<path id="Fill-27" class="st0" d="M211.6,228.9c-3,2.3-6.1,4.3-9.4,5.7c-4.1,1.9-7.9,2.8-11.7,2.9c-2.5,0.1-4.9-0.3-7.1-1.1
				c-2.4-0.9-4.6-2.4-6.4-4.2c-0.8-0.9-1.6-1.7-2.2-2.8c-0.3-0.5-0.7-0.9-1-1.5l-0.5-0.9c-0.7-1.2-1.5-2.4-2.3-3.6l-0.1-0.2
				c-1.9-2.9-3.6-5.2-5.3-7.2c-0.9-1-1.8-2.1-2.7-3l-0.1-0.1c-1.1-1.1-1.9-1.6-2.4-1.9c-0.4-0.2-0.8-0.4-1.4-0.7c-0.9-0.5-2-1-3-1.6
				c-1.5-0.8-3-1.8-4.6-2.9c-1.5-1-2.9-2.1-4.3-3.1c-0.2-0.1-0.4-0.3-0.5-0.4c-0.6,0.5-1.4,1-2.2,1.3c-2.5,1-5,1.8-7.6,2.5
				c-2.9,0.8-5.6,1.2-8.1,1.4c-2.6,0.3-5.4,0.3-8.5,0l-0.2,0c-1.3-0.2-2.7-0.4-4.1-0.7l-0.5-0.1c-0.4-0.1-0.7-0.2-1.1-0.3
				c-0.9-0.3-2-0.6-3-1l-0.1-0.1c-0.3-0.2-0.7-0.3-1-0.5c-0.9-0.4-1.9-0.9-2.8-1.4l-3.1-1.7c-4.2-2.3-8.5-4.6-12.7-7.6
				c-5.1-3.6-8.9-7.5-11.7-11.8c-1.7-2.6-2.9-5.3-3.7-8c-0.8-2.7-1.2-5.6-1.3-8.6c0-2.7,0.2-5.4,0.9-8.3c0.3-1.4,0.7-2.7,1-3.8
				l0.1-0.3c0.1-0.4,0.3-0.7,0.4-1.1c0.3-0.8,0.5-1.6,0.9-2.5c0.9-2.2,1.9-4.4,3.2-6.8c1.2-2.1,2.4-4.1,3.7-6.1l0.2-0.3l8.4,4.6
				c-0.8,1.7-1.8,3.9-2.7,6.1c-0.8,2-1.5,4.1-2.1,6.1l0,0.1c-0.2,0.5-0.3,1.1-0.5,1.8c-0.1,0.4-0.2,0.8-0.3,1.2
				c-0.2,0.9-0.4,2-0.5,3c-0.2,2.1-0.3,4-0.1,5.7c0.2,1.8,0.6,3.6,1.1,5.2c0.6,1.6,1.5,3.1,2.5,4.5c1.8,2.6,4.6,5,8.5,7.7
				c3.5,2.3,7.4,4.3,11.6,6.4l0.8,0.4c0.8,0.4,1.7,0.8,2.5,1.3c0,0,0.2,0.1,0.3,0.2c0.1,0,0.1,0.1,0.2,0.1l2.1,0.9
				c0.2,0.1,0.7,0.2,1.2,0.4c0.3,0.1,0.7,0.2,1,0.3c0.9,0.2,1.7,0.3,2.5,0.4c2.1,0.2,3.8,0.1,5.4-0.1c1.1-0.1,2-0.2,2.8-0.4l0.3-0.1
				c0.9-0.1,1.8-0.4,2.8-0.6c2-0.5,3.9-1.1,5.8-1.8c2-0.8,3.9-1.6,5.5-2.5l4.8-2.6l3.9,3.6c0.9,0.8,2,1.7,3.4,2.9
				c1.2,1,2.4,1.9,3.5,2.7c1.3,0.9,2.4,1.7,3.5,2.4c0.6,0.4,1,0.6,1.6,0.9l0.1,0.1c0.8,0.4,1.5,0.8,2.5,1.4c1.9,1.2,3.6,2.6,5.2,4.3
				c1.3,1.4,2.5,2.8,3.6,4.3c1.9,2.6,3.8,5.4,5.8,8.9c0.8,1.4,1.6,2.8,2.5,4.6l0.7,1.5c0,0,0.1,0.1,0.1,0.2l0.2,0.3
				c0.2,0.3,0.5,0.7,0.8,1.1c0.8,1,2.3,1.7,4.1,1.8c2,0.1,4.5-0.3,7.5-1.2c2.8-0.9,5.5-2.1,7.9-3.5L211.6,228.9"/>
			<path id="Fill-28" class="st0" d="M81.7,165.4c0,0,0.3,0.3,0.8,1c0.5,0.6,1,1.5,1.6,2.6c1.1,2.2,1.9,5.2,2.1,8.3
				c0.2,3.1-0.4,6.2-1.3,8.5c-0.9,2.3-2.1,3.7-2.1,3.7s-0.3-0.4-0.6-1.1c-0.3-0.7-0.7-1.6-1.1-2.7c-0.7-2.2-1.2-5.2-1.4-8.1
				c-0.1-2.9,0.1-5.9,0.6-8.2c0.3-1.1,0.6-2.1,0.8-2.8C81.4,165.8,81.7,165.4,81.7,165.4"/>
			<path id="Fill-29" class="st0" d="M87,191.2L87,191.2l-4.8,6.2l-3.9-6.7c-0.1-0.2-0.4-0.7-0.8-1.6c-0.4-0.9-0.8-2-1.1-3.1
				c-0.8-2.7-1.3-5.9-1.5-9.2c-0.1-3.3,0.1-6.5,0.7-9.3c0.3-1.2,0.6-2.4,0.9-3.3c0.3-0.8,0.5-1.4,0.6-1.5l3.2-7l5.3,5.8
				c0.1,0.1,0.6,0.7,1.2,1.5c0.4,0.6,1.1,1.8,1.8,3.3c1.3,2.8,2.1,6.4,2.3,9.9c0.2,3.5-0.4,7.2-1.4,10.2
				C88.6,189,87.3,190.8,87,191.2"/>
			<path id="Fill-30" class="st0" d="M189.1,184.6c0,0-1.2-0.8-3.2-2.4c-2-1.5-4.8-3.8-8.1-6.5c-3.3-2.7-7.1-6-11.2-9.4
				c-0.5-0.4-1-0.8-1.5-1.2l-0.3-0.2l-0.2-0.1c-0.3-0.2,0.3,0.2,0.3,0.2l0,0l-0.1,0l-0.1-0.1l-0.5-0.2c-0.1,0,0,0.1,0,0.1
				c0.1,0-0.5,0-0.9,0.2l-1.9,0.5c-1.4,0.4-3.2,0.9-5.4,0.5c-1.1-0.2-2.1-0.6-3-1.2c-0.8-0.6-1.6-1.3-2.1-2c-0.6-0.7-1-1.5-1.4-2.2
				l-1-1.9c-0.7-1.1-1.3-2.2-2-3.3c-1.5-2.2-3.1-4.4-4.7-6.4c-1.7-2-3.3-3.9-5-5.7c-1.6-1.8-3.2-3.4-4.7-4.9
				c-1.5-1.5-2.9-2.9-4.1-4.1c-1.3-1.2-2.4-2.2-3.3-3.1c-1.9-1.7-2.9-2.7-2.9-2.7s0.3,0.2,0.9,0.4c0.6,0.3,1.5,0.7,2.6,1.3
				c1.1,0.6,2.5,1.4,4,2.3c1.5,0.9,3.2,2,4.9,3.4c1.8,1.3,3.6,2.7,5.5,4.4c1.9,1.6,3.8,3.4,5.7,5.5c1.9,2,3.8,4.1,5.5,6.5
				c0.8,1.2,1.7,2.5,2.5,3.8l1,1.9c0.3,0.5,0.6,1,0.9,1.4c0.6,0.8,1.2,1.2,1.8,1.4c0.7,0.2,1.7,0,3-0.3c0.7-0.2,1.4-0.4,2.2-0.5
				c0.9-0.1,1.7-0.3,3.2,0c0.4,0.1,0.8,0.2,1,0.3l0.5,0.2l0.1,0.1l0.4,0.2l0.2,0.2l0.5,0.4c0.6,0.5,1.1,1,1.6,1.4
				c2,1.9,3.8,3.8,5.5,5.6c1.7,1.8,3.3,3.5,4.7,5.2c2.9,3.2,5.1,6,6.7,8C188.2,183.5,189.1,184.6,189.1,184.6"/>
			<path id="Fill-31" class="st0" d="M190.7,186.2l-2-1.4c0,0-1.2-0.9-3.1-2.4c-2.7-2.1-5.4-4.3-8-6.6l-11.4-9.7
				c-0.4-0.3-0.8-0.6-1.1-0.9l-0.3-0.2l-0.2-0.1c-0.1,0-0.1,0-0.2,0c-0.2,0-0.5,0.1-0.7,0.1l-2,0.5c-1.4,0.4-3.2,0.9-5.4,0.5
				c-1.1-0.2-2.2-0.7-3.2-1.3c-0.9-0.7-1.7-1.4-2.2-2.1c-0.5-0.6-0.9-1.3-1.3-2l-1.1-2.1c-0.7-1.3-1.3-2.3-2-3.3
				c-1.7-2.5-3.2-4.6-4.7-6.3l-0.6-0.7c-1.5-1.8-2.9-3.4-4.3-5c-1.8-1.9-3.3-3.5-4.6-4.9l-4.1-4.1l-3.3-3.1l-4.9-4.4l3.4,1.6
				c0.2,0.1,0.4,0.2,0.6,0.3c0.5,0.3,1.2,0.6,2,1c1.4,0.7,2.7,1.5,3.9,2.3c1.2,0.8,3,1.9,4.9,3.4c2.1,1.6,3.9,3,5.5,4.4
				c2.2,1.9,4.1,3.7,5.7,5.5c1.8,2,3.8,4.2,5.5,6.6c1,1.4,1.8,2.7,2.5,3.8l1.1,2.1c0.2,0.4,0.5,0.8,0.7,1.1c0.6,0.8,1.1,1.1,1.6,1.2
				c0.4,0.1,1.2,0.1,2.8-0.3l0.5-0.1c0.5-0.1,1.1-0.3,1.7-0.4l0.4-0.1c0.8-0.1,1.6-0.2,3,0.1c0.3,0.1,0.8,0.2,1.1,0.4l1,0.6l0.8,0.6
				c0.5,0.4,0.8,0.7,1.2,1.1l0.4,0.4c1.8,1.7,3.4,3.4,4.9,5l0.6,0.6c1.7,1.8,3.2,3.6,4.6,5.2c2.3,2.6,4.4,5.2,6.6,8
				c1.5,2,2.4,3.1,2.4,3.2L190.7,186.2z M165.6,164.7c0.3,0.2,0.7,0.5,1.1,0.8l0.4,0.3l11.1,9.4c2.6,2.2,5.3,4.4,8,6.5
				c0.3,0.2,0.6,0.5,0.9,0.7c-0.2-0.3-0.4-0.6-0.7-0.9c-2.2-2.8-4.3-5.4-6.6-8c-1.4-1.7-2.9-3.4-4.6-5.1l-0.6-0.6
				c-1.5-1.6-3.1-3.3-4.9-5l-0.4-0.4c-0.4-0.4-0.7-0.7-1.2-1.1l-0.7-0.6l-0.9-0.5c-0.2-0.1-0.6-0.2-0.9-0.3
				c-1.2-0.3-1.9-0.2-2.7-0.1l-0.4,0c-0.6,0.1-1.1,0.3-1.6,0.4l-0.5,0.1c-1.4,0.4-2.5,0.5-3.2,0.3c-0.7-0.1-1.4-0.6-2-1.5
				c-0.3-0.3-0.5-0.8-0.8-1.2l-1.1-2.1c-0.7-1.1-1.5-2.4-2.4-3.8c-1.7-2.4-3.6-4.5-5.4-6.5c-1.6-1.7-3.5-3.5-5.6-5.4
				c-1.6-1.4-3.3-2.8-5.4-4.4c-1.9-1.4-3.7-2.6-4.9-3.3c-1.3-0.8-2.5-1.6-3.9-2.3c-0.4-0.2-0.7-0.4-1-0.6l4.2,3.9l4.1,4.1
				c1.4,1.4,2.9,3,4.7,5c1.4,1.6,2.8,3.2,4.3,5l0.6,0.7c1.5,1.8,3,3.9,4.7,6.4c0.7,1,1.3,2,2,3.4l1.1,2.1c0.4,0.7,0.7,1.3,1.2,1.9
				c0.5,0.7,1.2,1.4,2,2c0.9,0.6,1.9,1,2.8,1.2c2,0.3,3.7-0.1,5.1-0.5l2-0.5c0.2-0.1,0.5-0.1,0.6-0.1l0.1-0.2l0.4,0.1l0.1,0.1
				c0.2,0,0.4,0.2,0.6,0.3L165.6,164.7L165.6,164.7z"/>
		</g>
	</g>
</g>
<g>
	<path class="st0" d="M104,386.8h13.7c15.7,0,25,8.5,25,25.4s-9.3,25.8-24.5,25.8H104V386.8z M117.1,430.7
		c10.3,0,16.2-5.9,16.2-18.5s-5.9-18.1-16.2-18.1h-4v36.5H117.1z"/>
	<path class="st0" d="M149.7,418.8c0-12.5,8.7-20.2,17.7-20.2c10.4,0,15.9,7.5,15.9,18.3c0,1.7-0.2,3.4-0.4,4.4h-24.4
		c0.8,6.8,5.1,10.7,11.3,10.7c3.3,0,6.1-1,8.9-2.8l3.1,5.6c-3.7,2.5-8.3,4.2-13.2,4.2C158,439,149.7,431.5,149.7,418.8z
		 M175.5,415.1c0-5.9-2.6-9.5-7.9-9.5c-4.5,0-8.4,3.4-9.2,9.5H175.5z"/>
	<path class="st0" d="M189.4,418.8c0-12.5,8.7-20.2,17.7-20.2c10.4,0,15.9,7.5,15.9,18.3c0,1.7-0.2,3.4-0.4,4.4h-24.4
		c0.8,6.8,5.1,10.7,11.3,10.7c3.3,0,6.1-1,8.9-2.8l3.1,5.6c-3.7,2.5-8.3,4.2-13.2,4.2C197.7,439,189.4,431.5,189.4,418.8z
		 M215.2,415.1c0-5.9-2.6-9.5-7.9-9.5c-4.5,0-8.4,3.4-9.2,9.5H215.2z"/>
	<path class="st0" d="M231.6,399.6h7.4l0.7,4.1h0.2c3.2-2.8,7.4-5,11.6-5c9.6,0,15.1,7.7,15.1,19.6c0,13.2-7.9,20.8-16.4,20.8
		c-3.4,0-6.8-1.5-9.9-4.2l0.3,6.4v12.1h-9V399.6z M257.4,418.3c0-7.7-2.5-12.2-8.4-12.2c-2.8,0-5.4,1.4-8.4,4.3v17.9
		c2.8,2.4,5.5,3.2,7.7,3.2C253.5,431.5,257.4,427,257.4,418.3z"/>
	<path class="st0" d="M278,386.3h4.1l11.1,31.3c1.4,3.9,2.8,7.8,4.2,11.8h0.3c1.4-3.9,2.7-7.8,4.1-11.8l11.1-31.3h4.1v51.7h-2.5v-36
		c0-4.1,0.2-9.2,0.3-13.5h-0.3l-4,11.4l-11.7,32.3h-2.7L284.4,400l-4.1-11.4H280c0.2,4.2,0.3,9.4,0.3,13.5v36H278V386.3z"/>
	<path class="st0" d="M329.5,428.9c0-8.4,7.7-12.3,24.6-14.2c0.2-6.1-1.4-12.9-9.2-12.9c-5.3,0-9.9,2.7-12.2,4.5l-1.3-1.9
		c2.4-1.7,7.5-4.9,13.6-4.9c8.8,0,11.4,6.6,11.4,14.1v24.3h-2l-0.3-5H354c-3.9,3.1-8.6,6-13.6,6C334.5,439,329.5,436,329.5,428.9z
		 M354.1,430.4v-13.6c-16.5,1.9-22.1,5.6-22.1,12.1c0,5.8,3.9,8,8.5,8S349.1,434.6,354.1,430.4z"/>
	<path class="st0" d="M370.4,400.6h2l0.3,6h0.2c3.9-3.9,7.8-6.9,13-6.9c7.7,0,11.3,4.5,11.3,14.3v24.1h-2.4v-23.8
		c0-8.3-2.7-12.4-9.1-12.4c-4.7,0-8.2,2.5-13,7.5v28.7h-2.4V400.6z"/>
	<path class="st0" d="M408.8,428.9c0-8.4,7.7-12.3,24.6-14.2c0.2-6.1-1.4-12.9-9.2-12.9c-5.3,0-9.9,2.7-12.2,4.5l-1.3-1.9
		c2.4-1.7,7.5-4.9,13.6-4.9c8.8,0,11.4,6.6,11.4,14.1v24.3h-2l-0.3-5h-0.2c-3.9,3.1-8.6,6-13.6,6C413.9,439,408.8,436,408.8,428.9z
		 M433.4,430.4v-13.6c-16.5,1.9-22.1,5.6-22.1,12.1c0,5.8,3.9,8,8.5,8S428.4,434.6,433.4,430.4z"/>
	<path class="st0" d="M446.5,445.9c0-3.3,2.2-6.7,5.6-9.2v-0.3c-1.9-1.1-3.3-3.1-3.3-6c0-3.4,2.5-5.8,4.1-6.9v-0.3
		c-2.4-2-4.7-5.8-4.7-10.3c0-7.5,5.6-13.2,12.9-13.2c2,0,3.8,0.5,4.9,0.9h12.5v2.2h-9.1c2.7,2.2,4.5,5.8,4.5,10
		c0,7.5-5.6,13.3-12.9,13.3c-2.2,0-4.7-0.6-6.4-1.7c-1.7,1.4-3.3,3.1-3.3,5.8c0,2.8,1.6,5.2,7.4,5.2h8.3c8.3,0,12.1,2.7,12.1,8.5
		c0,6.3-6.7,12.5-17.2,12.5C452.3,456.4,446.5,452.2,446.5,445.9z M476.6,444c0-4.4-3.1-6.1-9.1-6.1h-8.6c-0.5,0-2.5-0.2-4.5-0.6
		c-3.8,2.5-5.3,5.6-5.3,8.5c0,5,4.7,8.5,13,8.5C470.9,454.2,476.6,449,476.6,444z M471.4,412.8c0-6.7-4.7-11-10.3-11
		s-10.3,4.2-10.3,11c0,6.6,4.9,11.1,10.3,11.1S471.4,419.4,471.4,412.8z"/>
	<path class="st0" d="M483.3,419.4c0-12.2,7.8-19.7,16.1-19.7c8.6,0,14.1,6.1,14.1,17.2c0,0.8,0,1.6-0.2,2.5h-27.6
		c0,10,5.8,17.4,14.7,17.4c4.2,0,7.5-1.4,10.3-3.4l1.1,2c-2.8,1.7-6,3.6-11.6,3.6C491,439,483.3,431.6,483.3,419.4z M511.2,417.2
		c0-10.3-4.7-15.4-11.8-15.4c-6.7,0-12.9,5.8-13.6,15.4H511.2z"/>
</g>
</svg>
