<svg id="Layer_1" data-name="Layer 1" xmlns="http://www.w3.org/2000/svg" viewBox="0 0 3510.8 349.9"><defs><style>.cls-1,.cls-2,.cls-3,.cls-4{fill:#fff;}.cls-1{opacity:0.08;}.cls-2{opacity:0.54;}.cls-3{opacity:0.26;}</style></defs><path class="cls-1" d="M-93.4,287.55c55.61-112.26,233.14-187.42,399.88-169.29C428.11,131.49,532.09,186.7,650,211.54c223.5,47.07,459.21-19.35,678.46-75.48s474.91-100.76,675.86-17.27C2121,167.27,2214.61,257.1,2350,260.38c90.09,2.18,173.17-36.39,263.16-40.17,112.45-4.72,212.91,44.39,316.76,75.16,236.94,70.2,527.08,41.29,727.12-72.46V983.84H-32.81Z"/><path class="cls-2" d="M3524.21,359c-167.44-67.91-371.71-89.32-559.95-58.7-141.16,23-276.86,74.12-421.45,67.66-136.26-6.09-255.88-62.28-374-110.49s-254.86-91.21-387.37-68c-142.2,24.89-240,119.29-377.26,155.5-144,38-305.58,5.83-446.05-38.21S680.73,206.12,528,193.52c-211.3-17.45-432.35,60.82-538.65,190.7V852.86H3574.22Z"/><path class="cls-3" d="M0,180.29c125.33,49,285.48,40,423.55,9.18S687.92,108.25,825.22,76s296-44.67,424.75.28c119.41,41.68,201.38,128.35,333.31,147.8,105.09,15.49,212.42-16.81,303.33-54.74S2065.35,86,2170.51,70.66c123.19-17.91,251,8.49,366.69,41.57s229,73.63,353.73,86.09c116,11.59,234.41-2,351.54,2.54S3486.69,234.28,3541,302.59V653H9.58Z"/><path class="cls-4" d="M3657.14,182.87C3563,118.56,3332,99.05,3143.81,117.54s-345.48,65.81-502.19,109.34S2313,312.59,2119,317.91c-223.62,6.13-437.71-37.81-661.86-39.65-285.68-2.33-558.41,63.74-841.9,50.21C354,316,160.36,241.27-47,176v964H3562.38Z"/></svg>